<svg width="384" height="512" viewBox="0 0 384 512" fill="none" xmlns="http://www.w3.org/2000/svg">
<g clip-path="url(#clip0_876_6)">
<path d="M376.6 84.5007C387.9 70.9007 386.1 50.7007 372.5 39.4007C358.9 28.1007 338.7 29.9007 327.4 43.5007L192 206.001L56.5997 43.5007C45.2997 29.9007 25.0997 28.1007 11.4997 39.4007C-2.10026 50.7007 -3.90026 70.9007 7.39974 84.5007L150.3 256.001L7.39974 427.501C-3.90026 441.101 -2.10026 461.301 11.4997 472.601C25.0997 483.901 45.2997 482.101 56.5997 468.501L192 306.001L327.4 468.501C338.7 482.101 358.9 483.901 372.5 472.601C386.1 461.301 387.9 441.101 376.6 427.501L233.7 256.001L376.6 84.5007Z" fill="white"/>
</g>
<defs>
<clipPath id="clip0_876_6">
<rect width="384" height="512" fill="white"/>
</clipPath>
</defs>
</svg>
